<mxfile host="Electron" modified="2025-09-23T21:12:19.768Z" agent="Mozilla/5.0 (Windows NT 10.0; Win64; x64) AppleWebKit/537.36 (KHTML, like Gecko) draw.io/24.1.0 Chrome/120.0.6099.109 Electron/28.1.0 Safari/537.36" etag="n0BziIrPFrE5pnUDQIpb" version="24.1.0" type="device">
  <diagram name="Page-1" id="h2jx1hvBPkfkwE36m_f2">
    <mxGraphModel dx="1216" dy="601" grid="1" gridSize="10" guides="1" tooltips="1" connect="1" arrows="1" fold="1" page="1" pageScale="1" pageWidth="850" pageHeight="1100" math="0" shadow="0">
      <root>
        <mxCell id="0" />
        <mxCell id="1" parent="0" />
        <mxCell id="4_0Q5Q8GRUsJLMohc6_g-1" value="" style="shape=actor;whiteSpace=wrap;html=1;" vertex="1" parent="1">
          <mxGeometry x="230" y="212.5" width="40" height="60" as="geometry" />
        </mxCell>
        <mxCell id="4_0Q5Q8GRUsJLMohc6_g-2" value="User" style="text;html=1;align=center;verticalAlign=middle;whiteSpace=wrap;rounded=0;" vertex="1" parent="1">
          <mxGeometry x="220" y="272.5" width="60" height="30" as="geometry" />
        </mxCell>
        <mxCell id="4_0Q5Q8GRUsJLMohc6_g-3" value="" style="endArrow=classic;html=1;rounded=0;" edge="1" parent="1">
          <mxGeometry width="50" height="50" relative="1" as="geometry">
            <mxPoint x="290" y="242.5" as="sourcePoint" />
            <mxPoint x="360" y="242.5" as="targetPoint" />
          </mxGeometry>
        </mxCell>
        <mxCell id="4_0Q5Q8GRUsJLMohc6_g-5" value="&lt;b&gt;-User Risk Profile&lt;/b&gt;&lt;div&gt;&lt;b&gt;-Return requirements&lt;/b&gt;&lt;/div&gt;&lt;div&gt;&lt;b&gt;-Prefered Assets Classes&lt;/b&gt;&lt;/div&gt;&lt;div&gt;&lt;b&gt;-Available Capital&lt;/b&gt;&lt;/div&gt;" style="text;html=1;align=center;verticalAlign=middle;whiteSpace=wrap;rounded=0;" vertex="1" parent="1">
          <mxGeometry x="145" y="310" width="210" height="30" as="geometry" />
        </mxCell>
        <mxCell id="4_0Q5Q8GRUsJLMohc6_g-7" value="&lt;b&gt;Economic Indicators&lt;/b&gt;" style="ellipse;whiteSpace=wrap;html=1;aspect=fixed;fillColor=#FFCCCC;" vertex="1" parent="1">
          <mxGeometry x="370" y="212.5" width="70" height="70" as="geometry" />
        </mxCell>
        <mxCell id="4_0Q5Q8GRUsJLMohc6_g-8" value="&lt;b&gt;Technical Indicators&lt;/b&gt;" style="ellipse;whiteSpace=wrap;html=1;aspect=fixed;fillColor=#99FFFF;" vertex="1" parent="1">
          <mxGeometry x="880" y="110" width="70" height="70" as="geometry" />
        </mxCell>
        <mxCell id="4_0Q5Q8GRUsJLMohc6_g-9" value="&lt;b&gt;Fudamental Indicators&lt;/b&gt;" style="ellipse;whiteSpace=wrap;html=1;aspect=fixed;fillColor=#99FFFF;" vertex="1" parent="1">
          <mxGeometry x="880" y="282.5" width="70" height="70" as="geometry" />
        </mxCell>
        <mxCell id="4_0Q5Q8GRUsJLMohc6_g-10" value="&lt;b&gt;Industries&lt;/b&gt;" style="ellipse;whiteSpace=wrap;html=1;aspect=fixed;fillColor=#99FFFF;" vertex="1" parent="1">
          <mxGeometry x="470" y="212.5" width="70" height="70" as="geometry" />
        </mxCell>
        <mxCell id="4_0Q5Q8GRUsJLMohc6_g-12" value="&lt;b&gt;Companies&lt;/b&gt;" style="ellipse;whiteSpace=wrap;html=1;aspect=fixed;fillColor=#99FFFF;" vertex="1" parent="1">
          <mxGeometry x="680" y="207.5" width="70" height="70" as="geometry" />
        </mxCell>
        <mxCell id="4_0Q5Q8GRUsJLMohc6_g-13" value="" style="endArrow=classic;html=1;rounded=0;entryX=0;entryY=0.5;entryDx=0;entryDy=0;exitX=1;exitY=0.5;exitDx=0;exitDy=0;" edge="1" parent="1" source="4_0Q5Q8GRUsJLMohc6_g-7" target="4_0Q5Q8GRUsJLMohc6_g-10">
          <mxGeometry width="50" height="50" relative="1" as="geometry">
            <mxPoint x="440" y="252.5" as="sourcePoint" />
            <mxPoint x="490" y="202.5" as="targetPoint" />
          </mxGeometry>
        </mxCell>
        <mxCell id="4_0Q5Q8GRUsJLMohc6_g-14" value="" style="endArrow=classic;html=1;rounded=0;" edge="1" parent="1" source="4_0Q5Q8GRUsJLMohc6_g-28">
          <mxGeometry width="50" height="50" relative="1" as="geometry">
            <mxPoint x="550" y="252.5" as="sourcePoint" />
            <mxPoint x="590" y="253" as="targetPoint" />
          </mxGeometry>
        </mxCell>
        <mxCell id="4_0Q5Q8GRUsJLMohc6_g-15" value="" style="endArrow=classic;html=1;rounded=0;" edge="1" parent="1" target="4_0Q5Q8GRUsJLMohc6_g-8">
          <mxGeometry width="50" height="50" relative="1" as="geometry">
            <mxPoint x="810.64" y="220.14" as="sourcePoint" />
            <mxPoint x="878.0000000000001" y="158.80000000000007" as="targetPoint" />
          </mxGeometry>
        </mxCell>
        <mxCell id="4_0Q5Q8GRUsJLMohc6_g-16" value="" style="endArrow=classic;html=1;rounded=0;entryX=-0.01;entryY=0.274;entryDx=0;entryDy=0;entryPerimeter=0;" edge="1" parent="1">
          <mxGeometry width="50" height="50" relative="1" as="geometry">
            <mxPoint x="810.64" y="265.14" as="sourcePoint" />
            <mxPoint x="877.3" y="304.18000000000006" as="targetPoint" />
          </mxGeometry>
        </mxCell>
        <mxCell id="4_0Q5Q8GRUsJLMohc6_g-17" value="" style="endArrow=classic;html=1;rounded=0;entryX=0.024;entryY=0.636;entryDx=0;entryDy=0;entryPerimeter=0;" edge="1" parent="1" target="4_0Q5Q8GRUsJLMohc6_g-11">
          <mxGeometry width="50" height="50" relative="1" as="geometry">
            <mxPoint x="948" y="310" as="sourcePoint" />
            <mxPoint x="998" y="260" as="targetPoint" />
          </mxGeometry>
        </mxCell>
        <mxCell id="4_0Q5Q8GRUsJLMohc6_g-18" value="" style="endArrow=classic;html=1;rounded=0;entryX=0;entryY=0.5;entryDx=0;entryDy=0;" edge="1" parent="1" target="4_0Q5Q8GRUsJLMohc6_g-11">
          <mxGeometry width="50" height="50" relative="1" as="geometry">
            <mxPoint x="942.7658179857676" y="158.41184617676367" as="sourcePoint" />
            <mxPoint x="998" y="95" as="targetPoint" />
          </mxGeometry>
        </mxCell>
        <mxCell id="4_0Q5Q8GRUsJLMohc6_g-20" value="&lt;b&gt;Sentiment&lt;/b&gt;" style="ellipse;whiteSpace=wrap;html=1;aspect=fixed;fillColor=#99FFFF;" vertex="1" parent="1">
          <mxGeometry x="780" y="207.5" width="70" height="70" as="geometry" />
        </mxCell>
        <mxCell id="4_0Q5Q8GRUsJLMohc6_g-23" value="" style="endArrow=classic;html=1;rounded=0;entryX=0;entryY=0.609;entryDx=0;entryDy=0;entryPerimeter=0;" edge="1" parent="1" source="4_0Q5Q8GRUsJLMohc6_g-11" target="4_0Q5Q8GRUsJLMohc6_g-24">
          <mxGeometry width="50" height="50" relative="1" as="geometry">
            <mxPoint x="1115.5" y="212.5" as="sourcePoint" />
            <mxPoint x="1168" y="213" as="targetPoint" />
          </mxGeometry>
        </mxCell>
        <mxCell id="4_0Q5Q8GRUsJLMohc6_g-24" value="&lt;b&gt;Recommendation&lt;/b&gt;" style="ellipse;whiteSpace=wrap;html=1;aspect=fixed;fillColor=#99FF99;" vertex="1" parent="1">
          <mxGeometry x="1230" y="147.5" width="107.5" height="107.5" as="geometry" />
        </mxCell>
        <mxCell id="4_0Q5Q8GRUsJLMohc6_g-25" value="" style="endArrow=classic;html=1;rounded=0;entryX=0.438;entryY=1.275;entryDx=0;entryDy=0;entryPerimeter=0;exitX=0.5;exitY=1;exitDx=0;exitDy=0;" edge="1" parent="1" source="4_0Q5Q8GRUsJLMohc6_g-11">
          <mxGeometry width="50" height="50" relative="1" as="geometry">
            <mxPoint x="1008" y="270" as="sourcePoint" />
            <mxPoint x="241.31999999999994" y="368.2500000000001" as="targetPoint" />
            <Array as="points">
              <mxPoint x="1114" y="478" />
              <mxPoint x="240" y="477.5" />
            </Array>
          </mxGeometry>
        </mxCell>
        <mxCell id="4_0Q5Q8GRUsJLMohc6_g-26" value="&lt;b&gt;Feedback loop&lt;/b&gt;" style="text;html=1;align=center;verticalAlign=middle;whiteSpace=wrap;rounded=0;" vertex="1" parent="1">
          <mxGeometry x="570" y="480" width="100" height="30" as="geometry" />
        </mxCell>
        <mxCell id="4_0Q5Q8GRUsJLMohc6_g-27" value="" style="endArrow=classic;html=1;rounded=0;" edge="1" parent="1" target="4_0Q5Q8GRUsJLMohc6_g-11">
          <mxGeometry width="50" height="50" relative="1" as="geometry">
            <mxPoint x="1115.5" y="212.5" as="sourcePoint" />
            <mxPoint x="1168" y="213" as="targetPoint" />
          </mxGeometry>
        </mxCell>
        <mxCell id="4_0Q5Q8GRUsJLMohc6_g-11" value="&lt;b&gt;Portfolio Optimization&lt;/b&gt;" style="ellipse;whiteSpace=wrap;html=1;aspect=fixed;fillColor=#99CCFF;" vertex="1" parent="1">
          <mxGeometry x="1070" y="167.5" width="87.5" height="87.5" as="geometry" />
        </mxCell>
        <mxCell id="4_0Q5Q8GRUsJLMohc6_g-29" value="" style="endArrow=classic;html=1;rounded=0;" edge="1" parent="1" source="4_0Q5Q8GRUsJLMohc6_g-10" target="4_0Q5Q8GRUsJLMohc6_g-28">
          <mxGeometry width="50" height="50" relative="1" as="geometry">
            <mxPoint x="550" y="252.5" as="sourcePoint" />
            <mxPoint x="590" y="253" as="targetPoint" />
          </mxGeometry>
        </mxCell>
        <mxCell id="4_0Q5Q8GRUsJLMohc6_g-28" value="&lt;b&gt;Asset Classes&lt;/b&gt;" style="ellipse;whiteSpace=wrap;html=1;aspect=fixed;fillColor=#99FFFF;" vertex="1" parent="1">
          <mxGeometry x="570" y="212.5" width="70" height="70" as="geometry" />
        </mxCell>
        <mxCell id="4_0Q5Q8GRUsJLMohc6_g-31" value="" style="endArrow=classic;html=1;rounded=0;exitX=1;exitY=0.5;exitDx=0;exitDy=0;" edge="1" parent="1" source="4_0Q5Q8GRUsJLMohc6_g-28" target="4_0Q5Q8GRUsJLMohc6_g-12">
          <mxGeometry width="50" height="50" relative="1" as="geometry">
            <mxPoint x="640" y="250" as="sourcePoint" />
            <mxPoint x="690" y="200" as="targetPoint" />
          </mxGeometry>
        </mxCell>
        <mxCell id="4_0Q5Q8GRUsJLMohc6_g-32" value="" style="endArrow=classic;html=1;rounded=0;" edge="1" parent="1">
          <mxGeometry width="50" height="50" relative="1" as="geometry">
            <mxPoint x="750" y="241.91" as="sourcePoint" />
            <mxPoint x="780" y="241.91" as="targetPoint" />
          </mxGeometry>
        </mxCell>
      </root>
    </mxGraphModel>
  </diagram>
</mxfile>
